<mxfile host="app.diagrams.net" agent="Mozilla/5.0 (Windows NT 10.0; Win64; x64) AppleWebKit/537.36 (KHTML, like Gecko) Chrome/127.0.0.0 Safari/537.36 Edg/127.0.0.0" version="24.7.6">
  <diagram name="Page-1" id="VPbHjQ1BROzPNbz4NQ8p">
    <mxGraphModel dx="3102" dy="1242" grid="1" gridSize="10" guides="1" tooltips="1" connect="1" arrows="1" fold="1" page="1" pageScale="1" pageWidth="827" pageHeight="1169" math="0" shadow="0">
      <root>
        <mxCell id="0" />
        <mxCell id="1" parent="0" />
        <mxCell id="kwtfLp-81ddeajUVcoqd-5" value="UI" style="swimlane;whiteSpace=wrap;html=1;" vertex="1" parent="1">
          <mxGeometry x="-800" y="40" width="480" height="910" as="geometry" />
        </mxCell>
        <mxCell id="kwtfLp-81ddeajUVcoqd-8" value="" style="ellipse;fillColor=strokeColor;html=1;" vertex="1" parent="kwtfLp-81ddeajUVcoqd-5">
          <mxGeometry x="320" y="100" width="30" height="30" as="geometry" />
        </mxCell>
        <mxCell id="kwtfLp-81ddeajUVcoqd-9" value="" style="html=1;verticalAlign=bottom;labelBackgroundColor=none;endArrow=block;endFill=1;rounded=0;exitX=0.5;exitY=1;exitDx=0;exitDy=0;" edge="1" parent="kwtfLp-81ddeajUVcoqd-5" source="kwtfLp-81ddeajUVcoqd-8">
          <mxGeometry width="160" relative="1" as="geometry">
            <mxPoint x="320" y="270" as="sourcePoint" />
            <mxPoint x="335" y="200" as="targetPoint" />
          </mxGeometry>
        </mxCell>
        <mxCell id="kwtfLp-81ddeajUVcoqd-10" value="&lt;font style=&quot;font-size: 15px;&quot;&gt;Payer MOJ&lt;/font&gt;" style="html=1;align=center;verticalAlign=middle;rounded=1;absoluteArcSize=1;arcSize=10;dashed=0;whiteSpace=wrap;" vertex="1" parent="kwtfLp-81ddeajUVcoqd-5">
          <mxGeometry x="277.5" y="270" width="115" height="40" as="geometry" />
        </mxCell>
        <mxCell id="kwtfLp-81ddeajUVcoqd-12" value="&lt;span style=&quot;font-size: 15px;&quot;&gt;Sélectionner et / ou Identifier la MOJ à payer&lt;/span&gt;" style="html=1;align=center;verticalAlign=middle;rounded=1;absoluteArcSize=1;arcSize=10;dashed=0;whiteSpace=wrap;" vertex="1" parent="kwtfLp-81ddeajUVcoqd-5">
          <mxGeometry x="233.5" y="200" width="202.5" height="40" as="geometry" />
        </mxCell>
        <mxCell id="kwtfLp-81ddeajUVcoqd-13" value="" style="html=1;verticalAlign=bottom;labelBackgroundColor=none;endArrow=block;endFill=1;rounded=0;exitX=0.5;exitY=1;exitDx=0;exitDy=0;entryX=0.5;entryY=0;entryDx=0;entryDy=0;" edge="1" parent="kwtfLp-81ddeajUVcoqd-5" source="kwtfLp-81ddeajUVcoqd-12" target="kwtfLp-81ddeajUVcoqd-10">
          <mxGeometry width="160" relative="1" as="geometry">
            <mxPoint x="200" y="480" as="sourcePoint" />
            <mxPoint x="360" y="480" as="targetPoint" />
          </mxGeometry>
        </mxCell>
        <mxCell id="kwtfLp-81ddeajUVcoqd-15" value="" style="html=1;verticalAlign=bottom;labelBackgroundColor=none;endArrow=block;endFill=1;rounded=0;" edge="1" parent="kwtfLp-81ddeajUVcoqd-5">
          <mxGeometry width="160" relative="1" as="geometry">
            <mxPoint x="390" y="290" as="sourcePoint" />
            <mxPoint x="870" y="104" as="targetPoint" />
            <Array as="points">
              <mxPoint x="500" y="289" />
              <mxPoint x="500" y="159" />
              <mxPoint x="810" y="159" />
              <mxPoint x="810" y="104" />
            </Array>
          </mxGeometry>
        </mxCell>
        <mxCell id="kwtfLp-81ddeajUVcoqd-16" value="&lt;font style=&quot;font-size: 15px;&quot;&gt;Choisir la mission à payer&lt;/font&gt;" style="html=1;align=center;verticalAlign=middle;rounded=1;absoluteArcSize=1;arcSize=10;dashed=0;whiteSpace=wrap;" vertex="1" parent="kwtfLp-81ddeajUVcoqd-5">
          <mxGeometry x="257.5" y="350" width="115" height="40" as="geometry" />
        </mxCell>
        <mxCell id="kwtfLp-81ddeajUVcoqd-18" value="&lt;font style=&quot;font-size: 15px;&quot;&gt;MOJ Identifiée&lt;/font&gt;" style="html=1;align=center;verticalAlign=middle;rounded=1;absoluteArcSize=1;arcSize=10;dashed=0;whiteSpace=wrap;" vertex="1" parent="kwtfLp-81ddeajUVcoqd-5">
          <mxGeometry x="257.5" y="420" width="115" height="40" as="geometry" />
        </mxCell>
        <mxCell id="kwtfLp-81ddeajUVcoqd-43" value="&lt;span style=&quot;font-size: 15px;&quot;&gt;affiche toutes les missions effectuer par la MOJ&lt;/span&gt;" style="html=1;align=center;verticalAlign=middle;dashed=0;whiteSpace=wrap;fillColor=#F2F2F2;" vertex="1" parent="kwtfLp-81ddeajUVcoqd-5">
          <mxGeometry x="280" y="37" width="180" height="50" as="geometry" />
        </mxCell>
        <mxCell id="kwtfLp-81ddeajUVcoqd-20" value="" style="html=1;verticalAlign=bottom;labelBackgroundColor=none;endArrow=block;endFill=1;rounded=0;exitX=0.5;exitY=1;exitDx=0;exitDy=0;entryX=0.5;entryY=0;entryDx=0;entryDy=0;" edge="1" parent="kwtfLp-81ddeajUVcoqd-5" source="kwtfLp-81ddeajUVcoqd-16" target="kwtfLp-81ddeajUVcoqd-18">
          <mxGeometry width="160" relative="1" as="geometry">
            <mxPoint x="372" y="375" as="sourcePoint" />
            <mxPoint x="422" y="375" as="targetPoint" />
          </mxGeometry>
        </mxCell>
        <mxCell id="kwtfLp-81ddeajUVcoqd-21" value="Cette action permet vailder la paie de la MOJ" style="shape=note2;boundedLbl=1;whiteSpace=wrap;html=1;size=13;verticalAlign=top;align=center;fillColor=#FFF2D9;strokeColor=#d79b00;" vertex="1" parent="kwtfLp-81ddeajUVcoqd-5">
          <mxGeometry x="50" y="410" width="120" height="60" as="geometry" />
        </mxCell>
        <mxCell id="kwtfLp-81ddeajUVcoqd-48" value="" style="html=1;verticalAlign=bottom;labelBackgroundColor=none;endArrow=block;endFill=1;rounded=0;exitX=0;exitY=0;exitDx=120;exitDy=36.5;exitPerimeter=0;entryX=-0.019;entryY=0.669;entryDx=0;entryDy=0;fontColor=#990000;strokeColor=#8C8C8C;entryPerimeter=0;" edge="1" parent="kwtfLp-81ddeajUVcoqd-5" source="kwtfLp-81ddeajUVcoqd-21" target="kwtfLp-81ddeajUVcoqd-18">
          <mxGeometry width="160" relative="1" as="geometry">
            <mxPoint x="180" y="490" as="sourcePoint" />
            <mxPoint x="267" y="520" as="targetPoint" />
          </mxGeometry>
        </mxCell>
        <mxCell id="kwtfLp-81ddeajUVcoqd-49" value="&lt;span style=&quot;font-size: 15px;&quot;&gt;&lt;font color=&quot;#00529b&quot;&gt;affiche message de succès&lt;/font&gt;&lt;/span&gt;" style="html=1;align=center;verticalAlign=middle;dashed=0;whiteSpace=wrap;fillColor=#cce5ff;strokeColor=#36393d;" vertex="1" parent="kwtfLp-81ddeajUVcoqd-5">
          <mxGeometry x="235" y="600" width="160" height="40" as="geometry" />
        </mxCell>
        <mxCell id="kwtfLp-81ddeajUVcoqd-41" value="&lt;font style=&quot;font-size: 15px;&quot;&gt;affiche le changement de statut de la mission de &lt;b&gt;A payer&lt;/b&gt; à &lt;b&gt;paie en cour&lt;/b&gt;&lt;/font&gt;" style="html=1;align=center;verticalAlign=middle;dashed=0;whiteSpace=wrap;fillColor=#FFFFFF;" vertex="1" parent="kwtfLp-81ddeajUVcoqd-5">
          <mxGeometry x="227" y="490" width="160" height="70" as="geometry" />
        </mxCell>
        <mxCell id="kwtfLp-81ddeajUVcoqd-40" value="&lt;font style=&quot;font-size: 15px;&quot;&gt;affiche le changement de statut de la mission; de &lt;b&gt;A payer&lt;/b&gt; à &lt;b&gt;payé&lt;/b&gt;&lt;/font&gt;" style="html=1;align=center;verticalAlign=middle;dashed=0;whiteSpace=wrap;fillColor=#FFFFFF;" vertex="1" parent="kwtfLp-81ddeajUVcoqd-5">
          <mxGeometry x="240" y="740" width="160" height="60" as="geometry" />
        </mxCell>
        <mxCell id="kwtfLp-81ddeajUVcoqd-58" value="" style="html=1;verticalAlign=bottom;labelBackgroundColor=none;endArrow=block;endFill=1;rounded=0;exitX=0.602;exitY=0.631;exitDx=0;exitDy=0;exitPerimeter=0;" edge="1" parent="kwtfLp-81ddeajUVcoqd-5" source="kwtfLp-81ddeajUVcoqd-57">
          <mxGeometry width="160" relative="1" as="geometry">
            <mxPoint x="635" y="700" as="sourcePoint" />
            <mxPoint x="400" y="780" as="targetPoint" />
          </mxGeometry>
        </mxCell>
        <mxCell id="kwtfLp-81ddeajUVcoqd-61" value="" style="ellipse;html=1;shape=endState;fillColor=strokeColor;" vertex="1" parent="kwtfLp-81ddeajUVcoqd-5">
          <mxGeometry x="140" y="515" width="30" height="30" as="geometry" />
        </mxCell>
        <mxCell id="kwtfLp-81ddeajUVcoqd-62" value="" style="ellipse;html=1;shape=endState;fillColor=strokeColor;" vertex="1" parent="kwtfLp-81ddeajUVcoqd-5">
          <mxGeometry x="160" y="755" width="30" height="30" as="geometry" />
        </mxCell>
        <mxCell id="kwtfLp-81ddeajUVcoqd-63" value="" style="html=1;verticalAlign=bottom;labelBackgroundColor=none;endArrow=block;endFill=1;rounded=0;entryX=1;entryY=0.5;entryDx=0;entryDy=0;exitX=0.004;exitY=0.557;exitDx=0;exitDy=0;exitPerimeter=0;" edge="1" parent="kwtfLp-81ddeajUVcoqd-5" source="kwtfLp-81ddeajUVcoqd-41" target="kwtfLp-81ddeajUVcoqd-61">
          <mxGeometry width="160" relative="1" as="geometry">
            <mxPoint x="130" y="580" as="sourcePoint" />
            <mxPoint x="209" y="580" as="targetPoint" />
          </mxGeometry>
        </mxCell>
        <mxCell id="kwtfLp-81ddeajUVcoqd-64" value="" style="html=1;verticalAlign=bottom;labelBackgroundColor=none;endArrow=block;endFill=1;rounded=0;entryX=1;entryY=0.5;entryDx=0;entryDy=0;" edge="1" parent="kwtfLp-81ddeajUVcoqd-5">
          <mxGeometry width="160" relative="1" as="geometry">
            <mxPoint x="240" y="770" as="sourcePoint" />
            <mxPoint x="190" y="770.5" as="targetPoint" />
          </mxGeometry>
        </mxCell>
        <mxCell id="kwtfLp-81ddeajUVcoqd-6" value="Control" style="swimlane;whiteSpace=wrap;html=1;" vertex="1" parent="1">
          <mxGeometry x="-320" y="40" width="360" height="910" as="geometry" />
        </mxCell>
        <mxCell id="kwtfLp-81ddeajUVcoqd-51" value="" style="html=1;points=[];perimeter=orthogonalPerimeter;fillColor=strokeColor;" vertex="1" parent="kwtfLp-81ddeajUVcoqd-6">
          <mxGeometry x="150" y="520" width="5" height="80" as="geometry" />
        </mxCell>
        <mxCell id="kwtfLp-81ddeajUVcoqd-57" value="" style="html=1;points=[];perimeter=orthogonalPerimeter;fillColor=strokeColor;" vertex="1" parent="kwtfLp-81ddeajUVcoqd-6">
          <mxGeometry x="150" y="642" width="5" height="80" as="geometry" />
        </mxCell>
        <mxCell id="kwtfLp-81ddeajUVcoqd-59" value="" style="html=1;verticalAlign=bottom;labelBackgroundColor=none;endArrow=block;endFill=1;rounded=0;exitX=-0.139;exitY=0.365;exitDx=0;exitDy=0;exitPerimeter=0;" edge="1" parent="kwtfLp-81ddeajUVcoqd-6" source="kwtfLp-81ddeajUVcoqd-57">
          <mxGeometry width="160" relative="1" as="geometry">
            <mxPoint x="155" y="663" as="sourcePoint" />
            <mxPoint x="-80" y="630" as="targetPoint" />
          </mxGeometry>
        </mxCell>
        <mxCell id="kwtfLp-81ddeajUVcoqd-7" value="System" style="swimlane;whiteSpace=wrap;html=1;" vertex="1" parent="1">
          <mxGeometry x="40" y="40" width="400" height="910" as="geometry" />
        </mxCell>
        <mxCell id="kwtfLp-81ddeajUVcoqd-11" value="&lt;span style=&quot;font-size: 15px;&quot;&gt;Récupère&amp;nbsp;&lt;/span&gt;&lt;span style=&quot;font-size: 15px;&quot;&gt;la liste des missions a payer pour la MOJ choisie&lt;/span&gt;" style="html=1;align=center;verticalAlign=middle;dashed=0;whiteSpace=wrap;fillColor=#FFFFFF;" vertex="1" parent="kwtfLp-81ddeajUVcoqd-7">
          <mxGeometry x="30" y="70" width="160" height="60" as="geometry" />
        </mxCell>
        <mxCell id="kwtfLp-81ddeajUVcoqd-27" value="le system vérifie si&#xa;plusieurs MOJ ont été affectées&#xa; a cette mission" style="rhombus;" vertex="1" parent="kwtfLp-81ddeajUVcoqd-7">
          <mxGeometry x="30" y="373" width="190" height="135" as="geometry" />
        </mxCell>
        <mxCell id="kwtfLp-81ddeajUVcoqd-34" value="Si OUI" style="text;html=1;align=center;verticalAlign=middle;whiteSpace=wrap;rounded=0;" vertex="1" parent="kwtfLp-81ddeajUVcoqd-7">
          <mxGeometry x="120" y="508" width="60" height="30" as="geometry" />
        </mxCell>
        <mxCell id="kwtfLp-81ddeajUVcoqd-39" value="Si NON" style="text;html=1;align=center;verticalAlign=middle;whiteSpace=wrap;rounded=0;" vertex="1" parent="kwtfLp-81ddeajUVcoqd-7">
          <mxGeometry x="230" y="420" width="60" height="30" as="geometry" />
        </mxCell>
        <mxCell id="kwtfLp-81ddeajUVcoqd-17" value="" style="html=1;verticalAlign=bottom;labelBackgroundColor=none;endArrow=block;endFill=1;rounded=0;" edge="1" parent="1">
          <mxGeometry width="160" relative="1" as="geometry">
            <mxPoint x="-620" y="410" as="sourcePoint" />
            <mxPoint x="-541" y="410" as="targetPoint" />
          </mxGeometry>
        </mxCell>
        <mxCell id="kwtfLp-81ddeajUVcoqd-31" value="" style="html=1;verticalAlign=bottom;labelBackgroundColor=none;endArrow=block;endFill=1;rounded=0;entryX=0;entryY=0.5;entryDx=0;entryDy=0;exitX=1;exitY=0.5;exitDx=0;exitDy=0;" edge="1" parent="1" source="kwtfLp-81ddeajUVcoqd-18" target="kwtfLp-81ddeajUVcoqd-27">
          <mxGeometry width="160" relative="1" as="geometry">
            <mxPoint x="-224" y="498" as="sourcePoint" />
            <mxPoint x="-160" y="470" as="targetPoint" />
          </mxGeometry>
        </mxCell>
        <mxCell id="kwtfLp-81ddeajUVcoqd-44" value="" style="html=1;verticalAlign=bottom;labelBackgroundColor=none;endArrow=block;endFill=1;rounded=0;entryX=1;entryY=0.5;entryDx=0;entryDy=0;exitX=0.5;exitY=0;exitDx=0;exitDy=0;" edge="1" parent="1" source="kwtfLp-81ddeajUVcoqd-11" target="kwtfLp-81ddeajUVcoqd-43">
          <mxGeometry width="160" relative="1" as="geometry">
            <mxPoint x="150" y="90" as="sourcePoint" />
            <mxPoint x="-140" y="160" as="targetPoint" />
            <Array as="points">
              <mxPoint x="150" y="80" />
              <mxPoint x="-120" y="80" />
              <mxPoint x="-120" y="100" />
            </Array>
          </mxGeometry>
        </mxCell>
        <mxCell id="kwtfLp-81ddeajUVcoqd-29" value="" style="html=1;verticalAlign=bottom;labelBackgroundColor=none;endArrow=block;endFill=1;rounded=0;entryX=0.95;entryY=0.507;entryDx=0;entryDy=0;exitX=0.5;exitY=1;exitDx=0;exitDy=0;entryPerimeter=0;" edge="1" parent="1" source="kwtfLp-81ddeajUVcoqd-27" target="kwtfLp-81ddeajUVcoqd-51">
          <mxGeometry width="160" relative="1" as="geometry">
            <mxPoint x="-51" y="667.9999999999998" as="sourcePoint" />
            <mxPoint x="154" y="625" as="targetPoint" />
            <Array as="points">
              <mxPoint x="165" y="601" />
              <mxPoint x="110" y="600" />
            </Array>
          </mxGeometry>
        </mxCell>
        <mxCell id="kwtfLp-81ddeajUVcoqd-55" value="" style="html=1;verticalAlign=bottom;labelBackgroundColor=none;endArrow=block;endFill=1;rounded=0;entryX=1;entryY=0.5;entryDx=0;entryDy=0;exitX=-0.089;exitY=0.49;exitDx=0;exitDy=0;exitPerimeter=0;" edge="1" parent="1" source="kwtfLp-81ddeajUVcoqd-51" target="kwtfLp-81ddeajUVcoqd-49">
          <mxGeometry width="160" relative="1" as="geometry">
            <mxPoint x="-250" y="650" as="sourcePoint" />
            <mxPoint x="-171" y="650" as="targetPoint" />
          </mxGeometry>
        </mxCell>
        <mxCell id="kwtfLp-81ddeajUVcoqd-56" value="" style="html=1;verticalAlign=bottom;labelBackgroundColor=none;endArrow=block;endFill=1;rounded=0;entryX=1;entryY=0.5;entryDx=0;entryDy=0;exitX=0.228;exitY=0.47;exitDx=0;exitDy=0;exitPerimeter=0;" edge="1" parent="1" source="kwtfLp-81ddeajUVcoqd-51" target="kwtfLp-81ddeajUVcoqd-41">
          <mxGeometry width="160" relative="1" as="geometry">
            <mxPoint x="-172.5" y="585" as="sourcePoint" />
            <mxPoint x="-407.5" y="625" as="targetPoint" />
          </mxGeometry>
        </mxCell>
        <mxCell id="kwtfLp-81ddeajUVcoqd-38" value="" style="html=1;verticalAlign=bottom;labelBackgroundColor=none;endArrow=block;endFill=1;rounded=0;exitX=1.015;exitY=0.498;exitDx=0;exitDy=0;exitPerimeter=0;entryX=0.417;entryY=0.596;entryDx=0;entryDy=0;entryPerimeter=0;" edge="1" parent="1">
          <mxGeometry width="160" relative="1" as="geometry">
            <mxPoint x="264.85000000000036" y="480.23" as="sourcePoint" />
            <mxPoint x="-165.91499999999996" y="719.6800000000001" as="targetPoint" />
            <Array as="points">
              <mxPoint x="352" y="480" />
              <mxPoint x="352" y="720" />
            </Array>
          </mxGeometry>
        </mxCell>
      </root>
    </mxGraphModel>
  </diagram>
</mxfile>
